# xmcd CD database file
#
# Track frame offsets:
#	200
#	13235
#	25780
#	39292
#	48277
#	60332
#	72145
#	83430
#	95065
#	106970
#
# Disc length: 1606 seconds
#
# Revision: 0
# Processed by: cddbd v1.5.2PL0 Copyright (c) Steve Scherf et al.
# Submitted via: CDex 1.70beta2
#
DISCID=6f06440a
DTITLE=Orlando Contreras - 25 aniversario Vol.2
DYEAR=1989
DGENRE=Salsa
TTITLE0=Un amigo mio
TTITLE1=Dificil
TTITLE2=Dos lagrimas
TTITLE3=Mi copa esta vacia
TTITLE4=Miseria
TTITLE5=Dolor de hombre
TTITLE6=Amarga decepcion
TTITLE7=Hambre de amor
TTITLE8=Arrepentido
TTITLE9=Arrancame la vida
EXTD=YEAR: 1989
EXTT0=
EXTT1=
EXTT2=
EXTT3=
EXTT4=
EXTT5=
EXTT6=
EXTT7=
EXTT8=
EXTT9=
PLAYORDER=
